# xmcd
#
# Track frame offsets:
#	150
#	18692
#	34719
#	52604
#	75076
#	88902
#	109080
#	128683
#	148155
#	161460
#	179519
#	198472
#	215303
#	235166
#	252999
#
# Disc length: 3604 seconds
#
# Revision: 1
# Processed by: cddbd v1.5.2PL0 Copyright (c) Steve Scherf et al.
# Submitted via: audiograbber 1.83.01
#
DISCID=c20e120f
DTITLE=Greg is Back - A Capella XXL
DYEAR=2015
DGENRE=A Cappella
TTITLE0=Bleibt alles anders
TTITLE1=What a feeling
TTITLE2=Hallelujah
TTITLE3=The World's Greatest
TTITLE4=Words
TTITLE5=Fix you
TTITLE6=Easy Lover
TTITLE7=He ain't Heavy, he's my Brother
TTITLE8=Frauen regier'n die Welt
TTITLE9=MLK
TTITLE10=Nach Süden
TTITLE11=Independent Woman
TTITLE12=Shape of my Heart
TTITLE13=Insomnia
TTITLE14=Loch Lomond
EXTD=
EXTT0=
EXTT1=
EXTT2=
EXTT3=
EXTT4=
EXTT5=
EXTT6=
EXTT7=
EXTT8=
EXTT9=
EXTT10=
EXTT11=
EXTT12=
EXTT13=
EXTT14=
PLAYORDER=
